<svg width="180" height="60" viewBox="0 0 180 60" fill="none" xmlns="http://www.w3.org/2000/svg">
<rect width="180" height="60" rx="5" fill="#4A99D3"/>
<path fill-rule="evenodd" clip-rule="evenodd" d="M22.9583 15.5224C22.6113 15.8715 22.4952 16.5683 22.4952 17.1496V42.6228C22.4952 43.2049 22.7267 43.7862 22.9583 44.2514L23.0744 44.3676L37.4282 30.0615V29.7124L22.959 15.5217L22.9583 15.5224Z" fill="url(#paint0_linear_1055_524)"/>
<path fill-rule="evenodd" clip-rule="evenodd" d="M42.174 34.7136L37.4279 29.9446V29.5955L42.174 24.8273L42.2894 24.9442L47.9617 28.2006C49.5825 29.1311 49.5825 30.6435 47.9617 31.5739L42.174 34.7143V34.7136Z" fill="url(#paint1_linear_1055_524)"/>
<path fill-rule="evenodd" clip-rule="evenodd" d="M42.2896 34.7135L37.3127 29.8285L22.9588 44.25C23.6535 44.832 24.695 44.832 25.3896 44.3668L42.2896 34.7135Z" fill="url(#paint2_linear_1055_524)"/>
<path fill-rule="evenodd" clip-rule="evenodd" d="M42.2894 24.9435L25.2747 15.4056C24.5794 14.9404 23.5364 14.9404 22.8425 15.5224L37.3117 29.8292L42.2894 24.9442V24.9435Z" fill="url(#paint3_linear_1055_524)"/>
<path fill-rule="evenodd" clip-rule="evenodd" d="M65.904 18.5459C65.904 19.3602 65.5563 20.2906 65.0933 20.872C64.7589 21.2058 64.3618 21.4703 63.9248 21.65C63.4878 21.8297 63.0196 21.9212 62.5471 21.9192C61.6209 21.9192 60.5787 21.5702 60.0002 20.872C59.1902 20.1738 58.8425 19.2441 58.8425 18.313C58.8425 17.2664 59.1902 16.336 59.8848 15.7547C60.5787 15.0565 61.5048 14.5913 62.431 14.7074C62.894 14.7074 63.3571 14.8235 63.8202 15.0565C64.1671 15.2895 64.6302 15.4056 64.9779 15.8708L64.3987 16.2199C63.8765 15.6986 63.1688 15.4057 62.431 15.4056C61.6209 15.4056 60.9263 15.7547 60.3471 16.336C59.8276 16.8628 59.5366 17.5731 59.5371 18.313C59.5371 19.0111 59.8848 19.8254 60.3471 20.2906C60.8695 20.8122 61.5774 21.105 62.3156 21.1049C63.1256 21.1049 63.7048 20.7559 64.2833 20.2906C64.6302 19.8254 64.8617 19.2434 64.9779 18.7782H62.431V17.9646H65.7879C65.904 18.1968 65.904 18.4298 65.904 18.5459ZM71.2279 15.6386H68.1032V17.9646H70.8817V18.7782H68.1032V20.9888H71.2279V21.8024H67.1764V14.8235H71.2279V15.6386ZM74.9325 21.8024H74.0063V15.6386H72.0386V14.8235H76.7848V15.6386H74.8171V21.8031L74.9325 21.8024ZM80.3732 21.8024V14.8235H81.2994V21.6863C81.1832 21.8024 80.3732 21.8024 80.3732 21.8024ZM84.3086 21.8024V15.6386H82.3416V14.8235H87.0878V15.6386H85.1201C85.2355 15.6386 85.2355 21.8031 85.2355 21.8031H84.3093L84.3086 21.8024ZM96.2317 20.872C94.8424 22.2683 92.6432 22.2683 91.0225 20.872C90.3504 20.1904 89.9759 19.2702 89.9809 18.313C89.9809 17.3826 90.3279 16.336 91.0225 15.7547C92.5278 14.2422 94.727 14.2422 96.2317 15.6378C96.9037 16.3195 97.2783 17.2396 97.2732 18.1968C97.2732 19.2441 96.9263 20.1745 96.2317 20.872ZM91.7171 20.2906C92.7586 21.3379 94.4955 21.3379 95.4216 20.2906C95.9413 19.7637 96.2324 19.0531 96.2317 18.313C96.2317 17.6148 95.884 16.9173 95.4216 16.336C94.3794 15.2888 92.6432 15.2888 91.7171 16.336C91.1975 16.8628 90.9065 17.5731 90.907 18.313C90.907 19.0111 91.254 19.7093 91.7171 20.2906ZM98.547 21.8024V14.8235H99.704L103.061 20.1738V14.8235H103.987V21.6863H103.061L99.4725 15.9869V21.5694L98.5463 21.8024H98.547Z" fill="white" stroke="white" stroke-width="0.560673"/>
<path fill-rule="evenodd" clip-rule="evenodd" d="M89.8649 31.8055C87.0864 31.8055 85.0033 34.0154 85.1194 36.8066C85.2349 39.5986 87.3187 41.6924 90.0964 41.5756C92.7587 41.5756 94.8425 39.3656 94.8425 36.6905C94.8425 34.0154 92.7587 31.8055 89.8649 31.8055ZM89.8649 39.7147C88.2448 39.8316 86.8556 38.5521 86.7395 36.9235C86.6241 35.2949 87.8972 33.8993 89.5179 33.7831C91.1387 33.6663 92.5279 34.9458 92.6433 36.5744V36.8073C92.7587 38.3191 91.4856 39.7147 89.8649 39.7147ZM79.1002 31.8055C76.3218 31.8055 74.238 34.0154 74.3541 36.8066C74.3541 39.5986 76.5533 41.6924 79.3318 41.5756C81.9941 41.5756 84.0772 39.3656 84.0772 36.6905C84.0772 34.0154 81.8779 31.8055 79.1002 31.8055ZM79.1002 39.7147C77.4795 39.8316 76.0903 38.5521 75.9748 36.9235C75.8587 35.2949 77.1318 33.8993 78.7533 33.7831C80.3733 33.6663 81.7625 34.9458 81.8779 36.5744V36.8073C81.8779 38.3191 80.7203 39.7147 79.0995 39.7147H79.1002ZM66.251 33.3172V35.4117H71.3448C71.2287 36.4583 70.8818 37.3887 70.1864 38.0869C69.1449 39.1334 67.7557 39.7147 66.3672 39.5986C63.3572 39.4825 61.0418 36.8073 61.158 33.7831C61.2734 30.9912 63.5887 28.549 66.3672 28.549C67.7564 28.549 69.1456 29.0142 70.071 30.0607L71.5757 28.6651C70.1864 27.2688 68.2187 26.5713 66.3672 26.5713C62.1995 26.3391 58.7272 29.7117 58.4949 33.8993C58.2641 38.0868 61.621 41.5756 65.788 41.8085H66.3672C68.3349 41.9246 70.3026 41.1104 71.6918 39.7147C73.081 37.97 73.7749 35.7608 73.4279 33.5502H66.251V33.3179V33.3172ZM118.804 34.9458C118.226 33.085 116.489 31.9216 114.521 31.8055C111.975 31.8055 109.89 33.7831 109.89 36.4575V36.6905C109.775 39.3656 111.859 41.5756 114.521 41.6917H114.752C116.373 41.6917 117.994 40.8781 118.92 39.5986L117.183 38.4352C116.72 39.2495 115.794 39.7147 114.752 39.7147C114.246 39.7161 113.75 39.575 113.32 39.3077C112.89 39.0404 112.544 38.6576 112.322 38.203L118.919 35.411L118.804 34.9458ZM112.09 36.5744C111.975 35.0626 113.132 33.7831 114.637 33.7831H114.752C115.563 33.6663 116.257 34.1322 116.605 34.8304L112.09 36.5744ZM106.649 41.3433H108.733V26.9204H106.649V41.3433ZM103.177 32.9688C102.366 32.2707 101.441 31.8055 100.399 31.8055C97.6203 31.9216 95.6533 34.2483 95.7687 37.0396C95.8841 39.5986 97.8525 41.5756 100.399 41.6917C101.441 41.6917 102.366 41.3433 103.061 40.529H103.177V41.2272C103.409 42.6228 102.483 43.9023 101.093 44.0184H100.63C99.4725 44.0184 98.5471 43.3203 98.084 42.2737L96.2317 43.088C96.9264 44.8327 98.6625 45.9961 100.63 45.9961C103.177 45.9961 105.261 44.4837 105.261 40.8781V32.1545H103.177V32.9688ZM100.63 39.7154C99.0102 39.5986 97.8518 38.203 97.8518 36.5744C97.9679 35.0626 99.1256 33.7831 100.63 33.7831C102.136 33.8993 103.409 35.0626 103.293 36.6905V36.8073C103.409 38.4352 102.251 39.7147 100.63 39.7147V39.7154ZM128.875 26.9204H123.666V41.3433H125.749V35.8762H128.759C131.19 36.1092 133.273 34.1322 133.505 31.6893C133.736 29.2464 131.769 27.1534 129.337 26.9204H128.874H128.875ZM128.875 33.8993H125.865V28.8981H128.875C130.264 28.8981 131.422 30.0607 131.422 31.3402C131.422 32.7366 130.379 33.8993 128.875 33.8993ZM142.418 31.8055C140.798 31.6893 139.292 32.6197 138.598 34.0154L140.566 34.8297C140.913 34.1315 141.723 33.6663 142.534 33.7824C143.692 33.6663 144.733 34.4806 144.849 35.644V35.7601C144.155 35.411 143.344 35.1788 142.534 35.2949C140.566 35.2949 138.366 36.4583 138.366 38.5521C138.482 40.4129 139.987 41.8085 141.955 41.6924H142.071C143.229 41.8085 144.155 41.2272 144.849 40.2961H144.965V41.4594H147.049V35.8762C146.817 33.3179 144.849 31.8055 142.418 31.8055ZM142.071 39.7147C141.261 39.8316 140.566 39.3656 140.335 38.5521C140.335 37.3887 141.492 37.0396 142.65 37.0396C143.344 37.0396 144.039 37.2726 144.617 37.5048C144.502 38.7843 143.344 39.7147 142.071 39.7147ZM154.341 32.1545L151.794 38.3191L149.248 32.1545H146.932L150.752 40.8781L148.553 45.7632H150.869L156.888 32.1545H154.341ZM134.894 41.3433H136.978V26.9204H134.894V41.3433Z" fill="white"/>
<defs>
<linearGradient id="paint0_linear_1055_524" x1="35.9609" y1="42.7732" x2="13.0136" y2="36.6522" gradientUnits="userSpaceOnUse">
<stop stop-color="#4998D3"/>
<stop offset="0.01" stop-color="#4A99D3"/>
<stop offset="0.26" stop-color="#42BAEB"/>
<stop offset="0.51" stop-color="#41C7F2"/>
<stop offset="0.76" stop-color="#56C9E9"/>
<stop offset="1" stop-color="#5BCAE8"/>
</linearGradient>
<linearGradient id="paint1_linear_1055_524" x1="49.9484" y1="29.8117" x2="21.937" y2="29.8117" gradientUnits="userSpaceOnUse">
<stop stop-color="#FEE000"/>
<stop offset="0.41" stop-color="#FEBD11"/>
<stop offset="0.78" stop-color="#FAA51A"/>
<stop offset="1" stop-color="#F99B1C"/>
</linearGradient>
<linearGradient id="paint2_linear_1055_524" x1="29.8387" y1="36.7038" x2="11.4312" y2="5.77591" gradientUnits="userSpaceOnUse">
<stop stop-color="#EF4149"/>
<stop offset="1" stop-color="#C31E63"/>
</linearGradient>
<linearGradient id="paint3_linear_1055_524" x1="9.67969" y1="43.046" x2="17.7035" y2="29.1744" gradientUnits="userSpaceOnUse">
<stop stop-color="#32A072"/>
<stop offset="0.07" stop-color="#2CA772"/>
<stop offset="0.48" stop-color="#4BBA71"/>
<stop offset="0.8" stop-color="#5EBD6B"/>
<stop offset="1" stop-color="#66BE69"/>
</linearGradient>
</defs>
</svg>
